<svg id="visual" viewBox="0 0 900 600" width="900" height="600" xmlns="http://www.w3.org/2000/svg" xmlns:xlink="http://www.w3.org/1999/xlink" version="1.1"><rect x="0" y="0" width="900" height="600" fill="#ffffff"></rect><defs><linearGradient id="grad1_0" x1="33.3%" y1="0%" x2="100%" y2="100%"><stop offset="20%" stop-color="#7ce7ff" stop-opacity="1"></stop><stop offset="80%" stop-color="#7ce7ff" stop-opacity="1"></stop></linearGradient></defs><defs><linearGradient id="grad1_1" x1="33.3%" y1="0%" x2="100%" y2="100%"><stop offset="20%" stop-color="#7ce7ff" stop-opacity="1"></stop><stop offset="80%" stop-color="#afefff" stop-opacity="1"></stop></linearGradient></defs><defs><linearGradient id="grad1_2" x1="33.3%" y1="0%" x2="100%" y2="100%"><stop offset="20%" stop-color="#d9f7ff" stop-opacity="1"></stop><stop offset="80%" stop-color="#afefff" stop-opacity="1"></stop></linearGradient></defs><defs><linearGradient id="grad1_3" x1="33.3%" y1="0%" x2="100%" y2="100%"><stop offset="20%" stop-color="#d9f7ff" stop-opacity="1"></stop><stop offset="80%" stop-color="#ffffff" stop-opacity="1"></stop></linearGradient></defs><defs><linearGradient id="grad2_0" x1="0%" y1="0%" x2="66.7%" y2="100%"><stop offset="20%" stop-color="#7ce7ff" stop-opacity="1"></stop><stop offset="80%" stop-color="#7ce7ff" stop-opacity="1"></stop></linearGradient></defs><defs><linearGradient id="grad2_1" x1="0%" y1="0%" x2="66.7%" y2="100%"><stop offset="20%" stop-color="#afefff" stop-opacity="1"></stop><stop offset="80%" stop-color="#7ce7ff" stop-opacity="1"></stop></linearGradient></defs><defs><linearGradient id="grad2_2" x1="0%" y1="0%" x2="66.7%" y2="100%"><stop offset="20%" stop-color="#afefff" stop-opacity="1"></stop><stop offset="80%" stop-color="#d9f7ff" stop-opacity="1"></stop></linearGradient></defs><defs><linearGradient id="grad2_3" x1="0%" y1="0%" x2="66.7%" y2="100%"><stop offset="20%" stop-color="#ffffff" stop-opacity="1"></stop><stop offset="80%" stop-color="#d9f7ff" stop-opacity="1"></stop></linearGradient></defs><g transform="translate(900, 0)"><path d="M0 351.5C-20 345.3 -39.9 339.1 -58.3 330.9C-76.8 322.7 -93.7 312.6 -111.2 305.4C-128.7 298.2 -146.8 294 -167.5 290.1C-188.2 286.3 -211.7 282.8 -226 269.3C-240.3 255.8 -245.5 232.1 -254.3 213.4C-263.1 194.7 -275.5 180.8 -285.8 165C-296 149.2 -304.2 131.4 -312 113.6C-319.8 95.7 -327.3 77.8 -333.8 58.9C-340.4 39.9 -346 20 -351.5 0L0 0Z" fill="#ecfbff"></path><path d="M0 263.7C-15 259 -29.9 254.3 -43.8 248.2C-57.6 242 -70.2 234.4 -83.4 229.1C-96.5 223.7 -110.1 220.5 -125.6 217.6C-141.2 214.7 -158.7 212.1 -169.5 202C-180.2 191.8 -184.1 174.1 -190.7 160.1C-197.4 146 -206.6 135.6 -214.3 123.8C-222 111.9 -228.1 98.5 -234 85.2C-239.8 71.8 -245.5 58.4 -250.4 44.2C-255.3 29.9 -259.5 15 -263.7 0L0 0Z" fill="#c5f3ff"></path><path d="M0 175.8C-10 172.7 -20 169.5 -29.2 165.4C-38.4 161.4 -46.8 156.3 -55.6 152.7C-64.3 149.1 -73.4 147 -83.7 145.1C-94.1 143.1 -105.8 141.4 -113 134.6C-120.1 127.9 -122.8 116.1 -127.2 106.7C-131.6 97.3 -137.8 90.4 -142.9 82.5C-148 74.6 -152.1 65.7 -156 56.8C-159.9 47.9 -163.7 38.9 -166.9 29.4C-170.2 20 -173 10 -175.8 0L0 0Z" fill="#97ebff"></path><path d="M0 87.9C-5 86.3 -10 84.8 -14.6 82.7C-19.2 80.7 -23.4 78.1 -27.8 76.4C-32.2 74.6 -36.7 73.5 -41.9 72.5C-47.1 71.6 -52.9 70.7 -56.5 67.3C-60.1 63.9 -61.4 58 -63.6 53.4C-65.8 48.7 -68.9 45.2 -71.4 41.3C-74 37.3 -76 32.8 -78 28.4C-79.9 23.9 -81.8 19.5 -83.5 14.7C-85.1 10 -86.5 5 -87.9 0L0 0Z" fill="#7ce7ff"></path></g><g transform="translate(0, 600)"><path d="M0 -351.5C17.4 -333.6 34.8 -315.7 55.6 -315.1C76.3 -314.6 100.5 -331.5 120.2 -330.3C140 -329.1 155.2 -309.8 170 -294.4C184.8 -279.1 199 -267.8 215.3 -256.6C231.6 -245.5 250 -234.6 260.5 -218.5C270.9 -202.5 273.5 -181.4 284.9 -164.5C296.3 -147.6 316.5 -134.9 322.3 -117.3C328.1 -99.7 319.6 -77.2 322 -56.8C324.5 -36.4 338 -18.2 351.5 0L0 0Z" fill="#ecfbff"></path><path d="M0 -263.7C13 -250.2 26.1 -236.7 41.7 -236.4C57.3 -236 75.4 -248.7 90.2 -247.8C105 -246.8 116.4 -232.3 127.5 -220.8C138.6 -209.3 149.3 -200.8 161.5 -192.5C173.7 -184.1 187.5 -175.9 195.3 -163.9C203.2 -151.9 205.1 -136.1 213.7 -123.4C222.2 -110.7 237.4 -101.2 241.7 -88C246.1 -74.8 239.7 -57.9 241.5 -42.6C243.4 -27.3 253.5 -13.7 263.7 0L0 0Z" fill="#c5f3ff"></path><path d="M0 -175.8C8.7 -166.8 17.4 -157.8 27.8 -157.6C38.2 -157.3 50.3 -165.8 60.1 -165.2C70 -164.6 77.6 -154.9 85 -147.2C92.4 -139.6 99.5 -133.9 107.7 -128.3C115.8 -122.7 125 -117.3 130.2 -109.3C135.5 -101.3 136.8 -90.7 142.5 -82.3C148.2 -73.8 158.3 -67.5 161.2 -58.7C164.1 -49.9 159.8 -38.6 161 -28.4C162.3 -18.2 169 -9.1 175.8 0L0 0Z" fill="#97ebff"></path><path d="M0 -87.9C4.3 -83.4 8.7 -78.9 13.9 -78.8C19.1 -78.7 25.1 -82.9 30.1 -82.6C35 -82.3 38.8 -77.4 42.5 -73.6C46.2 -69.8 49.8 -66.9 53.8 -64.2C57.9 -61.4 62.5 -58.6 65.1 -54.6C67.7 -50.6 68.4 -45.4 71.2 -41.1C74.1 -36.9 79.1 -33.7 80.6 -29.3C82 -24.9 79.9 -19.3 80.5 -14.2C81.1 -9.1 84.5 -4.6 87.9 0L0 0Z" fill="#7ce7ff"></path></g></svg>